G04 #@! TF.GenerationSoftware,KiCad,Pcbnew,5.0.0+dfsg1-2~bpo9+1*
G04 #@! TF.CreationDate,2018-10-30T11:56:53+00:00*
G04 #@! TF.ProjectId,13_screen_breakout,31335F73637265656E5F627265616B6F,rev?*
G04 #@! TF.SameCoordinates,Original*
G04 #@! TF.FileFunction,Legend,Bot*
G04 #@! TF.FilePolarity,Positive*
%FSLAX46Y46*%
G04 Gerber Fmt 4.6, Leading zero omitted, Abs format (unit mm)*
G04 Created by KiCad (PCBNEW 5.0.0+dfsg1-2~bpo9+1) date Tue Oct 30 11:56:53 2018*
%MOMM*%
%LPD*%
G01*
G04 APERTURE LIST*
%ADD10C,0.250000*%
G04 APERTURE END LIST*
D10*
X163011619Y-118130011D02*
X163344952Y-118130011D01*
X163344952Y-118653820D02*
X163344952Y-117653820D01*
X162868761Y-117653820D01*
X162059238Y-118653820D02*
X162059238Y-118130011D01*
X162106857Y-118034773D01*
X162202095Y-117987154D01*
X162392571Y-117987154D01*
X162487809Y-118034773D01*
X162059238Y-118606201D02*
X162154476Y-118653820D01*
X162392571Y-118653820D01*
X162487809Y-118606201D01*
X162535428Y-118510963D01*
X162535428Y-118415725D01*
X162487809Y-118320487D01*
X162392571Y-118272868D01*
X162154476Y-118272868D01*
X162059238Y-118225249D01*
X161154476Y-118606201D02*
X161249714Y-118653820D01*
X161440190Y-118653820D01*
X161535428Y-118606201D01*
X161583047Y-118558582D01*
X161630666Y-118463344D01*
X161630666Y-118177630D01*
X161583047Y-118082392D01*
X161535428Y-118034773D01*
X161440190Y-117987154D01*
X161249714Y-117987154D01*
X161154476Y-118034773D01*
X160344952Y-118606201D02*
X160440190Y-118653820D01*
X160630666Y-118653820D01*
X160725904Y-118606201D01*
X160773523Y-118510963D01*
X160773523Y-118130011D01*
X160725904Y-118034773D01*
X160630666Y-117987154D01*
X160440190Y-117987154D01*
X160344952Y-118034773D01*
X160297333Y-118130011D01*
X160297333Y-118225249D01*
X160773523Y-118320487D01*
X159725904Y-118653820D02*
X159821142Y-118606201D01*
X159868761Y-118510963D01*
X159868761Y-117653820D01*
X158964000Y-118606201D02*
X159059238Y-118653820D01*
X159249714Y-118653820D01*
X159344952Y-118606201D01*
X159392571Y-118510963D01*
X159392571Y-118130011D01*
X159344952Y-118034773D01*
X159249714Y-117987154D01*
X159059238Y-117987154D01*
X158964000Y-118034773D01*
X158916380Y-118130011D01*
X158916380Y-118225249D01*
X159392571Y-118320487D01*
X158535428Y-118606201D02*
X158440190Y-118653820D01*
X158249714Y-118653820D01*
X158154476Y-118606201D01*
X158106857Y-118510963D01*
X158106857Y-118463344D01*
X158154476Y-118368106D01*
X158249714Y-118320487D01*
X158392571Y-118320487D01*
X158487809Y-118272868D01*
X158535428Y-118177630D01*
X158535428Y-118130011D01*
X158487809Y-118034773D01*
X158392571Y-117987154D01*
X158249714Y-117987154D01*
X158154476Y-118034773D01*
X157725904Y-118606201D02*
X157630666Y-118653820D01*
X157440190Y-118653820D01*
X157344952Y-118606201D01*
X157297333Y-118510963D01*
X157297333Y-118463344D01*
X157344952Y-118368106D01*
X157440190Y-118320487D01*
X157583047Y-118320487D01*
X157678285Y-118272868D01*
X157725904Y-118177630D01*
X157725904Y-118130011D01*
X157678285Y-118034773D01*
X157583047Y-117987154D01*
X157440190Y-117987154D01*
X157344952Y-118034773D01*
X157011619Y-117987154D02*
X156630666Y-117987154D01*
X156868761Y-117653820D02*
X156868761Y-118510963D01*
X156821142Y-118606201D01*
X156725904Y-118653820D01*
X156630666Y-118653820D01*
X155916380Y-118606201D02*
X156011619Y-118653820D01*
X156202095Y-118653820D01*
X156297333Y-118606201D01*
X156344952Y-118510963D01*
X156344952Y-118130011D01*
X156297333Y-118034773D01*
X156202095Y-117987154D01*
X156011619Y-117987154D01*
X155916380Y-118034773D01*
X155868761Y-118130011D01*
X155868761Y-118225249D01*
X156344952Y-118320487D01*
X155011619Y-118606201D02*
X155106857Y-118653820D01*
X155297333Y-118653820D01*
X155392571Y-118606201D01*
X155440190Y-118558582D01*
X155487809Y-118463344D01*
X155487809Y-118177630D01*
X155440190Y-118082392D01*
X155392571Y-118034773D01*
X155297333Y-117987154D01*
X155106857Y-117987154D01*
X155011619Y-118034773D01*
X154583047Y-118653820D02*
X154583047Y-117653820D01*
X154154476Y-118653820D02*
X154154476Y-118130011D01*
X154202095Y-118034773D01*
X154297333Y-117987154D01*
X154440190Y-117987154D01*
X154535428Y-118034773D01*
X154583047Y-118082392D01*
X152964000Y-117749059D02*
X152916380Y-117701440D01*
X152821142Y-117653820D01*
X152583047Y-117653820D01*
X152487809Y-117701440D01*
X152440190Y-117749059D01*
X152392571Y-117844297D01*
X152392571Y-117939535D01*
X152440190Y-118082392D01*
X153011619Y-118653820D01*
X152392571Y-118653820D01*
X151773523Y-117653820D02*
X151678285Y-117653820D01*
X151583047Y-117701440D01*
X151535428Y-117749059D01*
X151487809Y-117844297D01*
X151440190Y-118034773D01*
X151440190Y-118272868D01*
X151487809Y-118463344D01*
X151535428Y-118558582D01*
X151583047Y-118606201D01*
X151678285Y-118653820D01*
X151773523Y-118653820D01*
X151868761Y-118606201D01*
X151916380Y-118558582D01*
X151964000Y-118463344D01*
X152011619Y-118272868D01*
X152011619Y-118034773D01*
X151964000Y-117844297D01*
X151916380Y-117749059D01*
X151868761Y-117701440D01*
X151773523Y-117653820D01*
X150487809Y-118653820D02*
X151059238Y-118653820D01*
X150773523Y-118653820D02*
X150773523Y-117653820D01*
X150868761Y-117796678D01*
X150964000Y-117891916D01*
X151059238Y-117939535D01*
X149916380Y-118082392D02*
X150011619Y-118034773D01*
X150059238Y-117987154D01*
X150106857Y-117891916D01*
X150106857Y-117844297D01*
X150059238Y-117749059D01*
X150011619Y-117701440D01*
X149916380Y-117653820D01*
X149725904Y-117653820D01*
X149630666Y-117701440D01*
X149583047Y-117749059D01*
X149535428Y-117844297D01*
X149535428Y-117891916D01*
X149583047Y-117987154D01*
X149630666Y-118034773D01*
X149725904Y-118082392D01*
X149916380Y-118082392D01*
X150011619Y-118130011D01*
X150059238Y-118177630D01*
X150106857Y-118272868D01*
X150106857Y-118463344D01*
X150059238Y-118558582D01*
X150011619Y-118606201D01*
X149916380Y-118653820D01*
X149725904Y-118653820D01*
X149630666Y-118606201D01*
X149583047Y-118558582D01*
X149535428Y-118463344D01*
X149535428Y-118272868D01*
X149583047Y-118177630D01*
X149630666Y-118130011D01*
X149725904Y-118082392D01*
X163530680Y-117117120D02*
X164102109Y-117117120D01*
X163816395Y-117117120D02*
X163816395Y-116117120D01*
X163911633Y-116259978D01*
X164006871Y-116355216D01*
X164102109Y-116402835D01*
X163102109Y-117021882D02*
X163054490Y-117069501D01*
X163102109Y-117117120D01*
X163149728Y-117069501D01*
X163102109Y-117021882D01*
X163102109Y-117117120D01*
X162721157Y-116117120D02*
X162102109Y-116117120D01*
X162435442Y-116498073D01*
X162292585Y-116498073D01*
X162197347Y-116545692D01*
X162149728Y-116593311D01*
X162102109Y-116688549D01*
X162102109Y-116926644D01*
X162149728Y-117021882D01*
X162197347Y-117069501D01*
X162292585Y-117117120D01*
X162578300Y-117117120D01*
X162673538Y-117069501D01*
X162721157Y-117021882D01*
X161911633Y-117212359D02*
X161149728Y-117212359D01*
X160959252Y-117069501D02*
X160816395Y-117117120D01*
X160578300Y-117117120D01*
X160483061Y-117069501D01*
X160435442Y-117021882D01*
X160387823Y-116926644D01*
X160387823Y-116831406D01*
X160435442Y-116736168D01*
X160483061Y-116688549D01*
X160578300Y-116640930D01*
X160768776Y-116593311D01*
X160864014Y-116545692D01*
X160911633Y-116498073D01*
X160959252Y-116402835D01*
X160959252Y-116307597D01*
X160911633Y-116212359D01*
X160864014Y-116164740D01*
X160768776Y-116117120D01*
X160530680Y-116117120D01*
X160387823Y-116164740D01*
X159530680Y-117069501D02*
X159625919Y-117117120D01*
X159816395Y-117117120D01*
X159911633Y-117069501D01*
X159959252Y-117021882D01*
X160006871Y-116926644D01*
X160006871Y-116640930D01*
X159959252Y-116545692D01*
X159911633Y-116498073D01*
X159816395Y-116450454D01*
X159625919Y-116450454D01*
X159530680Y-116498073D01*
X159102109Y-117117120D02*
X159102109Y-116450454D01*
X159102109Y-116640930D02*
X159054490Y-116545692D01*
X159006871Y-116498073D01*
X158911633Y-116450454D01*
X158816395Y-116450454D01*
X158102109Y-117069501D02*
X158197347Y-117117120D01*
X158387823Y-117117120D01*
X158483061Y-117069501D01*
X158530680Y-116974263D01*
X158530680Y-116593311D01*
X158483061Y-116498073D01*
X158387823Y-116450454D01*
X158197347Y-116450454D01*
X158102109Y-116498073D01*
X158054490Y-116593311D01*
X158054490Y-116688549D01*
X158530680Y-116783787D01*
X157244966Y-117069501D02*
X157340204Y-117117120D01*
X157530680Y-117117120D01*
X157625919Y-117069501D01*
X157673538Y-116974263D01*
X157673538Y-116593311D01*
X157625919Y-116498073D01*
X157530680Y-116450454D01*
X157340204Y-116450454D01*
X157244966Y-116498073D01*
X157197347Y-116593311D01*
X157197347Y-116688549D01*
X157673538Y-116783787D01*
X156768776Y-116450454D02*
X156768776Y-117117120D01*
X156768776Y-116545692D02*
X156721157Y-116498073D01*
X156625919Y-116450454D01*
X156483061Y-116450454D01*
X156387823Y-116498073D01*
X156340204Y-116593311D01*
X156340204Y-117117120D01*
X156102109Y-117212359D02*
X155340204Y-117212359D01*
X155102109Y-117117120D02*
X155102109Y-116117120D01*
X155102109Y-116498073D02*
X155006871Y-116450454D01*
X154816395Y-116450454D01*
X154721157Y-116498073D01*
X154673538Y-116545692D01*
X154625919Y-116640930D01*
X154625919Y-116926644D01*
X154673538Y-117021882D01*
X154721157Y-117069501D01*
X154816395Y-117117120D01*
X155006871Y-117117120D01*
X155102109Y-117069501D01*
X154197347Y-117117120D02*
X154197347Y-116450454D01*
X154197347Y-116640930D02*
X154149728Y-116545692D01*
X154102109Y-116498073D01*
X154006871Y-116450454D01*
X153911633Y-116450454D01*
X153197347Y-117069501D02*
X153292585Y-117117120D01*
X153483061Y-117117120D01*
X153578300Y-117069501D01*
X153625919Y-116974263D01*
X153625919Y-116593311D01*
X153578300Y-116498073D01*
X153483061Y-116450454D01*
X153292585Y-116450454D01*
X153197347Y-116498073D01*
X153149728Y-116593311D01*
X153149728Y-116688549D01*
X153625919Y-116783787D01*
X152292585Y-117117120D02*
X152292585Y-116593311D01*
X152340204Y-116498073D01*
X152435442Y-116450454D01*
X152625919Y-116450454D01*
X152721157Y-116498073D01*
X152292585Y-117069501D02*
X152387823Y-117117120D01*
X152625919Y-117117120D01*
X152721157Y-117069501D01*
X152768776Y-116974263D01*
X152768776Y-116879025D01*
X152721157Y-116783787D01*
X152625919Y-116736168D01*
X152387823Y-116736168D01*
X152292585Y-116688549D01*
X151816395Y-117117120D02*
X151816395Y-116117120D01*
X151721157Y-116736168D02*
X151435442Y-117117120D01*
X151435442Y-116450454D02*
X151816395Y-116831406D01*
X150864014Y-117117120D02*
X150959252Y-117069501D01*
X151006871Y-117021882D01*
X151054490Y-116926644D01*
X151054490Y-116640930D01*
X151006871Y-116545692D01*
X150959252Y-116498073D01*
X150864014Y-116450454D01*
X150721157Y-116450454D01*
X150625919Y-116498073D01*
X150578300Y-116545692D01*
X150530680Y-116640930D01*
X150530680Y-116926644D01*
X150578300Y-117021882D01*
X150625919Y-117069501D01*
X150721157Y-117117120D01*
X150864014Y-117117120D01*
X149673538Y-116450454D02*
X149673538Y-117117120D01*
X150102109Y-116450454D02*
X150102109Y-116974263D01*
X150054490Y-117069501D01*
X149959252Y-117117120D01*
X149816395Y-117117120D01*
X149721157Y-117069501D01*
X149673538Y-117021882D01*
X149340204Y-116450454D02*
X148959252Y-116450454D01*
X149197347Y-116117120D02*
X149197347Y-116974263D01*
X149149728Y-117069501D01*
X149054490Y-117117120D01*
X148959252Y-117117120D01*
M02*
