G04 #@! TF.GenerationSoftware,KiCad,Pcbnew,5.0.0+dfsg1-2~bpo9+1*
G04 #@! TF.CreationDate,2018-10-30T11:56:53+00:00*
G04 #@! TF.ProjectId,13_screen_breakout,31335F73637265656E5F627265616B6F,rev?*
G04 #@! TF.SameCoordinates,Original*
G04 #@! TF.FileFunction,Legend,Top*
G04 #@! TF.FilePolarity,Positive*
%FSLAX46Y46*%
G04 Gerber Fmt 4.6, Leading zero omitted, Abs format (unit mm)*
G04 Created by KiCad (PCBNEW 5.0.0+dfsg1-2~bpo9+1) date Tue Oct 30 11:56:53 2018*
%MOMM*%
%LPD*%
G01*
G04 APERTURE LIST*
%ADD10C,0.125000*%
%ADD11C,0.075000*%
%ADD12C,0.150000*%
G04 APERTURE END LIST*
G04 #@! TO.C,U1*
D10*
X161080597Y-108628310D02*
X160794882Y-108628310D01*
X160937740Y-108628310D02*
X160937740Y-108128310D01*
X160890120Y-108199739D01*
X160842501Y-108247358D01*
X160794882Y-108271167D01*
X151584201Y-108641010D02*
X151298487Y-108641010D01*
X151441344Y-108641010D02*
X151441344Y-108141010D01*
X151393725Y-108212439D01*
X151346106Y-108260058D01*
X151298487Y-108283867D01*
X151774678Y-108188629D02*
X151798487Y-108164820D01*
X151846106Y-108141010D01*
X151965154Y-108141010D01*
X152012773Y-108164820D01*
X152036582Y-108188629D01*
X152060392Y-108236248D01*
X152060392Y-108283867D01*
X152036582Y-108355296D01*
X151750868Y-108641010D01*
X152060392Y-108641010D01*
X160420992Y-107339320D02*
X160373373Y-107315510D01*
X160301944Y-107315510D01*
X160230516Y-107339320D01*
X160182897Y-107386939D01*
X160159087Y-107434558D01*
X160135278Y-107529796D01*
X160135278Y-107601224D01*
X160159087Y-107696462D01*
X160182897Y-107744081D01*
X160230516Y-107791700D01*
X160301944Y-107815510D01*
X160349563Y-107815510D01*
X160420992Y-107791700D01*
X160444801Y-107767891D01*
X160444801Y-107601224D01*
X160349563Y-107601224D01*
X157614292Y-107326620D02*
X157566673Y-107302810D01*
X157495244Y-107302810D01*
X157423816Y-107326620D01*
X157376197Y-107374239D01*
X157352387Y-107421858D01*
X157328578Y-107517096D01*
X157328578Y-107588524D01*
X157352387Y-107683762D01*
X157376197Y-107731381D01*
X157423816Y-107779000D01*
X157495244Y-107802810D01*
X157542863Y-107802810D01*
X157614292Y-107779000D01*
X157638101Y-107755191D01*
X157638101Y-107588524D01*
X157542863Y-107588524D01*
X156903092Y-107326620D02*
X156855473Y-107302810D01*
X156784044Y-107302810D01*
X156712616Y-107326620D01*
X156664997Y-107374239D01*
X156641187Y-107421858D01*
X156617378Y-107517096D01*
X156617378Y-107588524D01*
X156641187Y-107683762D01*
X156664997Y-107731381D01*
X156712616Y-107779000D01*
X156784044Y-107802810D01*
X156831663Y-107802810D01*
X156903092Y-107779000D01*
X156926901Y-107755191D01*
X156926901Y-107588524D01*
X156831663Y-107588524D01*
X152699392Y-107326620D02*
X152651773Y-107302810D01*
X152580344Y-107302810D01*
X152508916Y-107326620D01*
X152461297Y-107374239D01*
X152437487Y-107421858D01*
X152413678Y-107517096D01*
X152413678Y-107588524D01*
X152437487Y-107683762D01*
X152461297Y-107731381D01*
X152508916Y-107779000D01*
X152580344Y-107802810D01*
X152627963Y-107802810D01*
X152699392Y-107779000D01*
X152723201Y-107755191D01*
X152723201Y-107588524D01*
X152627963Y-107588524D01*
X160420992Y-110400020D02*
X160373373Y-110376210D01*
X160301944Y-110376210D01*
X160230516Y-110400020D01*
X160182897Y-110447639D01*
X160159087Y-110495258D01*
X160135278Y-110590496D01*
X160135278Y-110661924D01*
X160159087Y-110757162D01*
X160182897Y-110804781D01*
X160230516Y-110852400D01*
X160301944Y-110876210D01*
X160349563Y-110876210D01*
X160420992Y-110852400D01*
X160444801Y-110828591D01*
X160444801Y-110661924D01*
X160349563Y-110661924D01*
X157601592Y-110400020D02*
X157553973Y-110376210D01*
X157482544Y-110376210D01*
X157411116Y-110400020D01*
X157363497Y-110447639D01*
X157339687Y-110495258D01*
X157315878Y-110590496D01*
X157315878Y-110661924D01*
X157339687Y-110757162D01*
X157363497Y-110804781D01*
X157411116Y-110852400D01*
X157482544Y-110876210D01*
X157530163Y-110876210D01*
X157601592Y-110852400D01*
X157625401Y-110828591D01*
X157625401Y-110661924D01*
X157530163Y-110661924D01*
X156903092Y-110400020D02*
X156855473Y-110376210D01*
X156784044Y-110376210D01*
X156712616Y-110400020D01*
X156664997Y-110447639D01*
X156641187Y-110495258D01*
X156617378Y-110590496D01*
X156617378Y-110661924D01*
X156641187Y-110757162D01*
X156664997Y-110804781D01*
X156712616Y-110852400D01*
X156784044Y-110876210D01*
X156831663Y-110876210D01*
X156903092Y-110852400D01*
X156926901Y-110828591D01*
X156926901Y-110661924D01*
X156831663Y-110661924D01*
X152712092Y-110400020D02*
X152664473Y-110376210D01*
X152593044Y-110376210D01*
X152521616Y-110400020D01*
X152473997Y-110447639D01*
X152450187Y-110495258D01*
X152426378Y-110590496D01*
X152426378Y-110661924D01*
X152450187Y-110757162D01*
X152473997Y-110804781D01*
X152521616Y-110852400D01*
X152593044Y-110876210D01*
X152640663Y-110876210D01*
X152712092Y-110852400D01*
X152735901Y-110828591D01*
X152735901Y-110661924D01*
X152640663Y-110661924D01*
X157989773Y-110376210D02*
X158156440Y-110876210D01*
X158323106Y-110376210D01*
X157989773Y-107302810D02*
X158156440Y-107802810D01*
X158323106Y-107302810D01*
D11*
X159701854Y-107646462D02*
X159701854Y-107789320D01*
X159401854Y-107789320D01*
X159673282Y-107375034D02*
X159687568Y-107389320D01*
X159701854Y-107432177D01*
X159701854Y-107460748D01*
X159687568Y-107503605D01*
X159658997Y-107532177D01*
X159630425Y-107546462D01*
X159573282Y-107560748D01*
X159530425Y-107560748D01*
X159473282Y-107546462D01*
X159444711Y-107532177D01*
X159416140Y-107503605D01*
X159401854Y-107460748D01*
X159401854Y-107432177D01*
X159416140Y-107389320D01*
X159430425Y-107375034D01*
X159701854Y-110719862D02*
X159701854Y-110862720D01*
X159401854Y-110862720D01*
X159673282Y-110448434D02*
X159687568Y-110462720D01*
X159701854Y-110505577D01*
X159701854Y-110534148D01*
X159687568Y-110577005D01*
X159658997Y-110605577D01*
X159630425Y-110619862D01*
X159573282Y-110634148D01*
X159530425Y-110634148D01*
X159473282Y-110619862D01*
X159444711Y-110605577D01*
X159416140Y-110577005D01*
X159401854Y-110534148D01*
X159401854Y-110505577D01*
X159416140Y-110462720D01*
X159430425Y-110448434D01*
X159016054Y-110698434D02*
X159016054Y-110841291D01*
X158716054Y-110841291D01*
X158930340Y-110612720D02*
X158930340Y-110469862D01*
X159016054Y-110641291D02*
X158716054Y-110541291D01*
X159016054Y-110441291D01*
X159016054Y-107625034D02*
X159016054Y-107767891D01*
X158716054Y-107767891D01*
X158930340Y-107539320D02*
X158930340Y-107396462D01*
X159016054Y-107567891D02*
X158716054Y-107467891D01*
X159016054Y-107367891D01*
G04 #@! TO.C,U2*
D12*
X166200840Y-118442573D02*
X167200840Y-118109240D01*
X166200840Y-117775906D01*
X167105602Y-116871144D02*
X167153221Y-116918763D01*
X167200840Y-117061620D01*
X167200840Y-117156859D01*
X167153221Y-117299716D01*
X167057983Y-117394954D01*
X166962745Y-117442573D01*
X166772269Y-117490192D01*
X166629412Y-117490192D01*
X166438936Y-117442573D01*
X166343698Y-117394954D01*
X166248460Y-117299716D01*
X166200840Y-117156859D01*
X166200840Y-117061620D01*
X166248460Y-116918763D01*
X166296079Y-116871144D01*
X167105602Y-115871144D02*
X167153221Y-115918763D01*
X167200840Y-116061620D01*
X167200840Y-116156859D01*
X167153221Y-116299716D01*
X167057983Y-116394954D01*
X166962745Y-116442573D01*
X166772269Y-116490192D01*
X166629412Y-116490192D01*
X166438936Y-116442573D01*
X166343698Y-116394954D01*
X166248460Y-116299716D01*
X166200840Y-116156859D01*
X166200840Y-116061620D01*
X166248460Y-115918763D01*
X166296079Y-115871144D01*
X163708460Y-117871144D02*
X163660840Y-117966382D01*
X163660840Y-118109240D01*
X163708460Y-118252097D01*
X163803698Y-118347335D01*
X163898936Y-118394954D01*
X164089412Y-118442573D01*
X164232269Y-118442573D01*
X164422745Y-118394954D01*
X164517983Y-118347335D01*
X164613221Y-118252097D01*
X164660840Y-118109240D01*
X164660840Y-118014001D01*
X164613221Y-117871144D01*
X164565602Y-117823525D01*
X164232269Y-117823525D01*
X164232269Y-118014001D01*
X164660840Y-117394954D02*
X163660840Y-117394954D01*
X164660840Y-116823525D01*
X163660840Y-116823525D01*
X164660840Y-116347335D02*
X163660840Y-116347335D01*
X163660840Y-116109240D01*
X163708460Y-115966382D01*
X163803698Y-115871144D01*
X163898936Y-115823525D01*
X164089412Y-115775906D01*
X164232269Y-115775906D01*
X164422745Y-115823525D01*
X164517983Y-115871144D01*
X164613221Y-115966382D01*
X164660840Y-116109240D01*
X164660840Y-116347335D01*
X162120840Y-118879144D02*
X162120840Y-119355335D01*
X161120840Y-119355335D01*
X161597031Y-118545811D02*
X161597031Y-118212478D01*
X162120840Y-118069620D02*
X162120840Y-118545811D01*
X161120840Y-118545811D01*
X161120840Y-118069620D01*
X162120840Y-117641049D02*
X161120840Y-117641049D01*
X161120840Y-117402954D01*
X161168460Y-117260097D01*
X161263698Y-117164859D01*
X161358936Y-117117240D01*
X161549412Y-117069620D01*
X161692269Y-117069620D01*
X161882745Y-117117240D01*
X161977983Y-117164859D01*
X162073221Y-117260097D01*
X162120840Y-117402954D01*
X162120840Y-117641049D01*
X161739888Y-116641049D02*
X161739888Y-115879144D01*
X159580840Y-118879144D02*
X159580840Y-119355335D01*
X158580840Y-119355335D01*
X159057031Y-118545811D02*
X159057031Y-118212478D01*
X159580840Y-118069620D02*
X159580840Y-118545811D01*
X158580840Y-118545811D01*
X158580840Y-118069620D01*
X159580840Y-117641049D02*
X158580840Y-117641049D01*
X158580840Y-117402954D01*
X158628460Y-117260097D01*
X158723698Y-117164859D01*
X158818936Y-117117240D01*
X159009412Y-117069620D01*
X159152269Y-117069620D01*
X159342745Y-117117240D01*
X159437983Y-117164859D01*
X159533221Y-117260097D01*
X159580840Y-117402954D01*
X159580840Y-117641049D01*
X159199888Y-116641049D02*
X159199888Y-115879144D01*
X159580840Y-116260097D02*
X158818936Y-116260097D01*
X157040840Y-117363144D02*
X156040840Y-117363144D01*
X156040840Y-117125049D01*
X156088460Y-116982192D01*
X156183698Y-116886954D01*
X156278936Y-116839335D01*
X156469412Y-116791716D01*
X156612269Y-116791716D01*
X156802745Y-116839335D01*
X156897983Y-116886954D01*
X156993221Y-116982192D01*
X157040840Y-117125049D01*
X157040840Y-117363144D01*
X156945602Y-115791716D02*
X156993221Y-115839335D01*
X157040840Y-115982192D01*
X157040840Y-116077430D01*
X156993221Y-116220287D01*
X156897983Y-116315525D01*
X156802745Y-116363144D01*
X156612269Y-116410763D01*
X156469412Y-116410763D01*
X156278936Y-116363144D01*
X156183698Y-116315525D01*
X156088460Y-116220287D01*
X156040840Y-116077430D01*
X156040840Y-115982192D01*
X156088460Y-115839335D01*
X156136079Y-115791716D01*
X154405602Y-116767906D02*
X154453221Y-116815525D01*
X154500840Y-116958382D01*
X154500840Y-117053620D01*
X154453221Y-117196478D01*
X154357983Y-117291716D01*
X154262745Y-117339335D01*
X154072269Y-117386954D01*
X153929412Y-117386954D01*
X153738936Y-117339335D01*
X153643698Y-117291716D01*
X153548460Y-117196478D01*
X153500840Y-117053620D01*
X153500840Y-116958382D01*
X153548460Y-116815525D01*
X153596079Y-116767906D01*
X154453221Y-116386954D02*
X154500840Y-116244097D01*
X154500840Y-116006001D01*
X154453221Y-115910763D01*
X154405602Y-115863144D01*
X154310364Y-115815525D01*
X154215126Y-115815525D01*
X154119888Y-115863144D01*
X154072269Y-115910763D01*
X154024650Y-116006001D01*
X153977031Y-116196478D01*
X153929412Y-116291716D01*
X153881793Y-116339335D01*
X153786555Y-116386954D01*
X153691317Y-116386954D01*
X153596079Y-116339335D01*
X153548460Y-116291716D01*
X153500840Y-116196478D01*
X153500840Y-115958382D01*
X153548460Y-115815525D01*
X151913221Y-119053716D02*
X151960840Y-118910859D01*
X151960840Y-118672763D01*
X151913221Y-118577525D01*
X151865602Y-118529906D01*
X151770364Y-118482287D01*
X151675126Y-118482287D01*
X151579888Y-118529906D01*
X151532269Y-118577525D01*
X151484650Y-118672763D01*
X151437031Y-118863240D01*
X151389412Y-118958478D01*
X151341793Y-119006097D01*
X151246555Y-119053716D01*
X151151317Y-119053716D01*
X151056079Y-119006097D01*
X151008460Y-118958478D01*
X150960840Y-118863240D01*
X150960840Y-118625144D01*
X151008460Y-118482287D01*
X151960840Y-117577525D02*
X151960840Y-118053716D01*
X150960840Y-118053716D01*
X151865602Y-116672763D02*
X151913221Y-116720382D01*
X151960840Y-116863240D01*
X151960840Y-116958478D01*
X151913221Y-117101335D01*
X151817983Y-117196573D01*
X151722745Y-117244192D01*
X151532269Y-117291811D01*
X151389412Y-117291811D01*
X151198936Y-117244192D01*
X151103698Y-117196573D01*
X151008460Y-117101335D01*
X150960840Y-116958478D01*
X150960840Y-116863240D01*
X151008460Y-116720382D01*
X151056079Y-116672763D01*
X151960840Y-116244192D02*
X150960840Y-116244192D01*
X151960840Y-115672763D02*
X151389412Y-116101335D01*
X150960840Y-115672763D02*
X151532269Y-116244192D01*
X149420840Y-118934668D02*
X148420840Y-118934668D01*
X149135126Y-118601335D01*
X148420840Y-118268001D01*
X149420840Y-118268001D01*
X148420840Y-117601335D02*
X148420840Y-117410859D01*
X148468460Y-117315620D01*
X148563698Y-117220382D01*
X148754174Y-117172763D01*
X149087507Y-117172763D01*
X149277983Y-117220382D01*
X149373221Y-117315620D01*
X149420840Y-117410859D01*
X149420840Y-117601335D01*
X149373221Y-117696573D01*
X149277983Y-117791811D01*
X149087507Y-117839430D01*
X148754174Y-117839430D01*
X148563698Y-117791811D01*
X148468460Y-117696573D01*
X148420840Y-117601335D01*
X149373221Y-116791811D02*
X149420840Y-116648954D01*
X149420840Y-116410859D01*
X149373221Y-116315620D01*
X149325602Y-116268001D01*
X149230364Y-116220382D01*
X149135126Y-116220382D01*
X149039888Y-116268001D01*
X148992269Y-116315620D01*
X148944650Y-116410859D01*
X148897031Y-116601335D01*
X148849412Y-116696573D01*
X148801793Y-116744192D01*
X148706555Y-116791811D01*
X148611317Y-116791811D01*
X148516079Y-116744192D01*
X148468460Y-116696573D01*
X148420840Y-116601335D01*
X148420840Y-116363240D01*
X148468460Y-116220382D01*
X149420840Y-115791811D02*
X148420840Y-115791811D01*
X146880840Y-117402859D02*
X146404650Y-117736192D01*
X146880840Y-117974287D02*
X145880840Y-117974287D01*
X145880840Y-117593335D01*
X145928460Y-117498097D01*
X145976079Y-117450478D01*
X146071317Y-117402859D01*
X146214174Y-117402859D01*
X146309412Y-117450478D01*
X146357031Y-117498097D01*
X146404650Y-117593335D01*
X146404650Y-117974287D01*
X146833221Y-117021906D02*
X146880840Y-116879049D01*
X146880840Y-116640954D01*
X146833221Y-116545716D01*
X146785602Y-116498097D01*
X146690364Y-116450478D01*
X146595126Y-116450478D01*
X146499888Y-116498097D01*
X146452269Y-116545716D01*
X146404650Y-116640954D01*
X146357031Y-116831430D01*
X146309412Y-116926668D01*
X146261793Y-116974287D01*
X146166555Y-117021906D01*
X146071317Y-117021906D01*
X145976079Y-116974287D01*
X145928460Y-116926668D01*
X145880840Y-116831430D01*
X145880840Y-116593335D01*
X145928460Y-116450478D01*
X145880840Y-116164763D02*
X145880840Y-115593335D01*
X146880840Y-115879049D02*
X145880840Y-115879049D01*
G04 #@! TD*
M02*
