G04 #@! TF.GenerationSoftware,KiCad,Pcbnew,5.0.0+dfsg1-2~bpo9+1*
G04 #@! TF.CreationDate,2018-10-30T11:56:53+00:00*
G04 #@! TF.ProjectId,13_screen_breakout,31335F73637265656E5F627265616B6F,rev?*
G04 #@! TF.SameCoordinates,Original*
G04 #@! TF.FileFunction,Copper,L1,Top,Signal*
G04 #@! TF.FilePolarity,Positive*
%FSLAX46Y46*%
G04 Gerber Fmt 4.6, Leading zero omitted, Abs format (unit mm)*
G04 Created by KiCad (PCBNEW 5.0.0+dfsg1-2~bpo9+1) date Tue Oct 30 11:56:53 2018*
%MOMM*%
%LPD*%
G01*
G04 APERTURE LIST*
G04 #@! TA.AperFunction,SMDPad,CuDef*
%ADD10R,0.300000X2.000000*%
G04 #@! TD*
G04 #@! TA.AperFunction,ComponentPad*
%ADD11C,1.600000*%
G04 #@! TD*
G04 #@! TA.AperFunction,ViaPad*
%ADD12C,0.800000*%
G04 #@! TD*
G04 #@! TA.AperFunction,Conductor*
%ADD13C,0.250000*%
G04 #@! TD*
G04 APERTURE END LIST*
D10*
G04 #@! TO.P,U1,1*
G04 #@! TO.N,Net-(U1-Pad1)*
X160277340Y-109126020D03*
G04 #@! TO.P,U1,2*
G04 #@! TO.N,Net-(U1-Pad2)*
X159577340Y-109126020D03*
G04 #@! TO.P,U1,3*
G04 #@! TO.N,Net-(U1-Pad3)*
X158877340Y-109126020D03*
G04 #@! TO.P,U1,4*
G04 #@! TO.N,Net-(U1-Pad4)*
X158177340Y-109126020D03*
G04 #@! TO.P,U1,5*
G04 #@! TO.N,Net-(U1-Pad1)*
X157477340Y-109126020D03*
G04 #@! TO.P,U1,6*
X156777340Y-109126020D03*
G04 #@! TO.P,U1,7*
G04 #@! TO.N,Net-(U1-Pad7)*
X156077340Y-109126020D03*
G04 #@! TO.P,U1,8*
G04 #@! TO.N,Net-(U1-Pad8)*
X155377340Y-109126020D03*
G04 #@! TO.P,U1,9*
G04 #@! TO.N,Net-(U1-Pad9)*
X154677340Y-109126020D03*
G04 #@! TO.P,U1,10*
G04 #@! TO.N,Net-(U1-Pad10)*
X153977340Y-109126020D03*
G04 #@! TO.P,U1,11*
G04 #@! TO.N,Net-(U1-Pad11)*
X153277340Y-109126020D03*
G04 #@! TO.P,U1,12*
G04 #@! TO.N,Net-(U1-Pad1)*
X152577340Y-109126020D03*
G04 #@! TD*
D11*
G04 #@! TO.P,U2,5*
G04 #@! TO.N,Net-(U1-Pad7)*
X156588460Y-114315240D03*
G04 #@! TO.P,U2,6*
G04 #@! TO.N,Net-(U1-Pad8)*
X154048460Y-114315240D03*
G04 #@! TO.P,U2,7*
G04 #@! TO.N,Net-(U1-Pad9)*
X151508460Y-114315240D03*
G04 #@! TO.P,U2,8*
G04 #@! TO.N,Net-(U1-Pad10)*
X148968460Y-114315240D03*
G04 #@! TO.P,U2,9*
G04 #@! TO.N,Net-(U1-Pad11)*
X146428460Y-114315240D03*
G04 #@! TO.P,U2,4*
G04 #@! TO.N,Net-(U1-Pad3)*
X159128460Y-114315240D03*
G04 #@! TO.P,U2,3*
G04 #@! TO.N,Net-(U1-Pad2)*
X161668460Y-114315240D03*
G04 #@! TO.P,U2,2*
G04 #@! TO.N,Net-(U1-Pad1)*
X164208460Y-114315240D03*
G04 #@! TO.P,U2,1*
G04 #@! TO.N,Net-(U1-Pad4)*
X166748460Y-114315240D03*
G04 #@! TD*
D12*
G04 #@! TO.N,Net-(U1-Pad4)*
X158152340Y-111277400D03*
G04 #@! TD*
D13*
G04 #@! TO.N,Net-(U1-Pad1)*
X164208460Y-113183870D02*
X161704020Y-110679430D01*
X164208460Y-114315240D02*
X164208460Y-113183870D01*
X161704020Y-110679430D02*
X161704020Y-107607100D01*
X161704020Y-107607100D02*
X161343340Y-107246420D01*
X160277340Y-108276020D02*
X160277340Y-109126020D01*
X161306940Y-107246420D02*
X160277340Y-108276020D01*
X161343340Y-107246420D02*
X161306940Y-107246420D01*
X157477340Y-107876020D02*
X157477340Y-109126020D01*
X158106940Y-107246420D02*
X157477340Y-107876020D01*
X161306940Y-107246420D02*
X158106940Y-107246420D01*
X157406940Y-107246420D02*
X158106940Y-107246420D01*
X156777340Y-107876020D02*
X157406940Y-107246420D01*
X156777340Y-109126020D02*
X156777340Y-107876020D01*
X153206940Y-107246420D02*
X157406940Y-107246420D01*
X152577340Y-107876020D02*
X153206940Y-107246420D01*
X152577340Y-109126020D02*
X152577340Y-107876020D01*
G04 #@! TO.N,Net-(U1-Pad2)*
X159577340Y-110376020D02*
X159577340Y-109126020D01*
X159577340Y-111092750D02*
X159577340Y-110376020D01*
X161668460Y-113183870D02*
X159577340Y-111092750D01*
X161668460Y-114315240D02*
X161668460Y-113183870D01*
G04 #@! TO.N,Net-(U1-Pad3)*
X158877340Y-112932750D02*
X158877340Y-110376020D01*
X158877340Y-110376020D02*
X158877340Y-109126020D01*
X159128460Y-113183870D02*
X158877340Y-112932750D01*
X159128460Y-114315240D02*
X159128460Y-113183870D01*
G04 #@! TO.N,Net-(U1-Pad4)*
X158152340Y-109151020D02*
X158177340Y-109126020D01*
X158152340Y-111277400D02*
X158152340Y-109151020D01*
G04 #@! TO.N,Net-(U1-Pad7)*
X156077340Y-110376020D02*
X156077340Y-109126020D01*
X156077340Y-112672750D02*
X156077340Y-110376020D01*
X156588460Y-113183870D02*
X156077340Y-112672750D01*
X156588460Y-114315240D02*
X156588460Y-113183870D01*
G04 #@! TO.N,Net-(U1-Pad8)*
X155377340Y-111854990D02*
X155377340Y-110376020D01*
X155377340Y-110376020D02*
X155377340Y-109126020D01*
X154048460Y-113183870D02*
X155377340Y-111854990D01*
X154048460Y-114315240D02*
X154048460Y-113183870D01*
G04 #@! TO.N,Net-(U1-Pad9)*
X152308459Y-113515241D02*
X152308459Y-112697361D01*
X151508460Y-114315240D02*
X152308459Y-113515241D01*
X152308459Y-112697361D02*
X153062839Y-112697361D01*
X154677340Y-111082860D02*
X154677340Y-109126020D01*
X153062839Y-112697361D02*
X154677340Y-111082860D01*
G04 #@! TO.N,Net-(U1-Pad10)*
X148968460Y-114315240D02*
X150045420Y-113238280D01*
X150045420Y-112186720D02*
X150507700Y-111724440D01*
X150045420Y-113238280D02*
X150045420Y-112186720D01*
X150804880Y-111724440D02*
X150830280Y-111699040D01*
X150507700Y-111724440D02*
X150804880Y-111724440D01*
X150830280Y-111699040D02*
X153195020Y-111699040D01*
X153977340Y-110916720D02*
X153977340Y-109126020D01*
X153195020Y-111699040D02*
X153977340Y-110916720D01*
G04 #@! TO.N,Net-(U1-Pad11)*
X146428460Y-114315240D02*
X149542500Y-111201200D01*
X149542500Y-111201200D02*
X152791160Y-111201200D01*
X153277340Y-110715020D02*
X153277340Y-109126020D01*
X152791160Y-111201200D02*
X153277340Y-110715020D01*
G04 #@! TD*
M02*
