G04 #@! TF.GenerationSoftware,KiCad,Pcbnew,5.0.2+dfsg1-1~bpo9+1*
G04 #@! TF.CreationDate,2018-12-31T18:08:11+00:00*
G04 #@! TF.ProjectId,13_full_breakout_gpio,31335f66-756c-46c5-9f62-7265616b6f75,rev?*
G04 #@! TF.SameCoordinates,Original*
G04 #@! TF.FileFunction,Copper,L1,Top*
G04 #@! TF.FilePolarity,Positive*
%FSLAX46Y46*%
G04 Gerber Fmt 4.6, Leading zero omitted, Abs format (unit mm)*
G04 Created by KiCad (PCBNEW 5.0.2+dfsg1-1~bpo9+1) date Mon 31 Dec 2018 18:08:11 GMT*
%MOMM*%
%LPD*%
G01*
G04 APERTURE LIST*
G04 #@! TA.AperFunction,SMDPad,CuDef*
%ADD10R,0.300000X3.000000*%
G04 #@! TD*
G04 #@! TA.AperFunction,ViaPad*
%ADD11C,0.800000*%
G04 #@! TD*
G04 #@! TA.AperFunction,Conductor*
%ADD12C,0.250000*%
G04 #@! TD*
G04 APERTURE END LIST*
D10*
G04 #@! TO.P,U1,1*
G04 #@! TO.N,Net-(J1-Pad6)*
X166775923Y-88416437D03*
G04 #@! TO.P,U1,2*
X166075923Y-88416437D03*
G04 #@! TO.P,U1,3*
G04 #@! TO.N,Net-(R1-Pad2)*
X165375923Y-88416437D03*
G04 #@! TO.P,U1,4*
G04 #@! TO.N,Net-(J1-Pad1)*
X164675923Y-88416437D03*
G04 #@! TO.P,U1,5*
G04 #@! TO.N,Net-(J1-Pad6)*
X163975923Y-88416437D03*
G04 #@! TO.P,U1,6*
X163275923Y-88416437D03*
G04 #@! TO.P,U1,7*
G04 #@! TO.N,Net-(J1-Pad22)*
X162575923Y-88416437D03*
G04 #@! TO.P,U1,8*
G04 #@! TO.N,Net-(J1-Pad24)*
X161875923Y-88416437D03*
G04 #@! TO.P,U1,9*
G04 #@! TO.N,Net-(J1-Pad23)*
X161175923Y-88416437D03*
G04 #@! TO.P,U1,10*
G04 #@! TO.N,Net-(J1-Pad19)*
X160475923Y-88416437D03*
G04 #@! TO.P,U1,11*
G04 #@! TO.N,Net-(J1-Pad13)*
X159775923Y-88416437D03*
G04 #@! TO.P,U1,12*
G04 #@! TO.N,Net-(J1-Pad6)*
X159075923Y-88416437D03*
G04 #@! TD*
D11*
G04 #@! TO.N,Net-(J1-Pad1)*
X135382000Y-74930000D03*
X166941500Y-80899000D03*
G04 #@! TO.N,Net-(J1-Pad6)*
X140208000Y-73025000D03*
G04 #@! TO.N,Net-(J1-Pad13)*
X150431500Y-80835500D03*
G04 #@! TO.N,Net-(J1-Pad19)*
X158178500Y-80454500D03*
G04 #@! TO.N,Net-(J1-Pad22)*
X163385500Y-83756500D03*
G04 #@! TO.N,Net-(J1-Pad23)*
X162814000Y-80137000D03*
G04 #@! TO.N,Net-(J1-Pad24)*
X163195000Y-73342500D03*
G04 #@! TO.N,Net-(R1-Pad2)*
X170815000Y-85725000D03*
G04 #@! TD*
D12*
G04 #@! TO.N,Net-(J1-Pad1)*
X164675923Y-86666437D02*
X165735000Y-85607360D01*
X164675923Y-88416437D02*
X164675923Y-86666437D01*
X165735000Y-73977500D02*
X164374999Y-72617499D01*
X164057499Y-72299999D02*
X142086499Y-72299999D01*
X164374999Y-72617499D02*
X164057499Y-72299999D01*
X142086499Y-72299999D02*
X141859000Y-72072500D01*
X138239500Y-72072500D02*
X135382000Y-74930000D01*
X141859000Y-72072500D02*
X138239500Y-72072500D01*
X166541501Y-80118001D02*
X165735000Y-79311500D01*
X166541501Y-80499001D02*
X166541501Y-80118001D01*
X166941500Y-80899000D02*
X166541501Y-80499001D01*
X165735000Y-85607360D02*
X165735000Y-79311500D01*
X165735000Y-79311500D02*
X165735000Y-73977500D01*
G04 #@! TO.N,Net-(J1-Pad6)*
X163275923Y-88416437D02*
X163275923Y-90166437D01*
X159728346Y-90818860D02*
X159075923Y-90166437D01*
X159075923Y-90166437D02*
X159075923Y-88416437D01*
X163275923Y-90166437D02*
X162700860Y-90741500D01*
X162700860Y-90741500D02*
X162623500Y-90818860D01*
X166775923Y-88416437D02*
X166775923Y-90166437D01*
X163323500Y-90818860D02*
X162496500Y-90818860D01*
X163975923Y-90166437D02*
X163323500Y-90818860D01*
X163975923Y-88416437D02*
X163975923Y-90166437D01*
X162623500Y-90818860D02*
X162496500Y-90818860D01*
X162496500Y-90818860D02*
X159728346Y-90818860D01*
X163373140Y-90868500D02*
X163323500Y-90818860D01*
X166775923Y-90166437D02*
X166073860Y-90868500D01*
X159075923Y-87066437D02*
X157861486Y-85852000D01*
X159075923Y-88416437D02*
X159075923Y-87066437D01*
X157861486Y-85852000D02*
X144399000Y-85852000D01*
X140208000Y-81661000D02*
X140208000Y-73025000D01*
X144399000Y-85852000D02*
X140208000Y-81661000D01*
X165417500Y-90824860D02*
X165417500Y-90868500D01*
X166075923Y-88416437D02*
X166075923Y-90166437D01*
X165417500Y-90868500D02*
X163373140Y-90868500D01*
X166075923Y-90166437D02*
X165417500Y-90824860D01*
X166073860Y-90868500D02*
X165417500Y-90868500D01*
G04 #@! TO.N,Net-(J1-Pad13)*
X159775923Y-86666437D02*
X158305500Y-85196014D01*
X159775923Y-88416437D02*
X159775923Y-86666437D01*
X158305500Y-85196014D02*
X154792014Y-85196014D01*
X154792014Y-85196014D02*
X150431500Y-80835500D01*
G04 #@! TO.N,Net-(J1-Pad19)*
X160475923Y-86666437D02*
X160464500Y-86655014D01*
X160475923Y-88416437D02*
X160475923Y-86666437D01*
X160464500Y-82740500D02*
X158178500Y-80454500D01*
X160464500Y-86655014D02*
X160464500Y-82740500D01*
G04 #@! TO.N,Net-(J1-Pad22)*
X162575923Y-84566077D02*
X163385500Y-83756500D01*
X162575923Y-88416437D02*
X162575923Y-84566077D01*
G04 #@! TO.N,Net-(J1-Pad23)*
X161175923Y-86666437D02*
X161290000Y-86552360D01*
X161175923Y-88416437D02*
X161175923Y-86666437D01*
X161290000Y-81661000D02*
X162814000Y-80137000D01*
X161290000Y-86552360D02*
X161290000Y-81661000D01*
G04 #@! TO.N,Net-(J1-Pad24)*
X161875923Y-88416437D02*
X161875923Y-83297577D01*
X161875923Y-83297577D02*
X164274500Y-80899000D01*
X164274500Y-74422000D02*
X163195000Y-73342500D01*
X164274500Y-80899000D02*
X164274500Y-74422000D01*
G04 #@! TO.N,Net-(R1-Pad2)*
X165375923Y-86666437D02*
X165872860Y-86169500D01*
X165375923Y-88416437D02*
X165375923Y-86666437D01*
X170370500Y-86169500D02*
X170815000Y-85725000D01*
X165872860Y-86169500D02*
X170370500Y-86169500D01*
G04 #@! TD*
M02*
