G04 #@! TF.GenerationSoftware,KiCad,Pcbnew,5.0.2+dfsg1-1~bpo9+1*
G04 #@! TF.CreationDate,2018-12-31T18:08:11+00:00*
G04 #@! TF.ProjectId,13_full_breakout_gpio,31335f66-756c-46c5-9f62-7265616b6f75,rev?*
G04 #@! TF.SameCoordinates,Original*
G04 #@! TF.FileFunction,Soldermask,Top*
G04 #@! TF.FilePolarity,Negative*
%FSLAX46Y46*%
G04 Gerber Fmt 4.6, Leading zero omitted, Abs format (unit mm)*
G04 Created by KiCad (PCBNEW 5.0.2+dfsg1-1~bpo9+1) date Mon 31 Dec 2018 18:08:11 GMT*
%MOMM*%
%LPD*%
G01*
G04 APERTURE LIST*
%ADD10C,0.100000*%
G04 APERTURE END LIST*
D10*
G36*
X166976923Y-89967437D02*
X166574923Y-89967437D01*
X166574923Y-86865437D01*
X166976923Y-86865437D01*
X166976923Y-89967437D01*
X166976923Y-89967437D01*
G37*
G36*
X159276923Y-89967437D02*
X158874923Y-89967437D01*
X158874923Y-86865437D01*
X159276923Y-86865437D01*
X159276923Y-89967437D01*
X159276923Y-89967437D01*
G37*
G36*
X159976923Y-89967437D02*
X159574923Y-89967437D01*
X159574923Y-86865437D01*
X159976923Y-86865437D01*
X159976923Y-89967437D01*
X159976923Y-89967437D01*
G37*
G36*
X160676923Y-89967437D02*
X160274923Y-89967437D01*
X160274923Y-86865437D01*
X160676923Y-86865437D01*
X160676923Y-89967437D01*
X160676923Y-89967437D01*
G37*
G36*
X161376923Y-89967437D02*
X160974923Y-89967437D01*
X160974923Y-86865437D01*
X161376923Y-86865437D01*
X161376923Y-89967437D01*
X161376923Y-89967437D01*
G37*
G36*
X162076923Y-89967437D02*
X161674923Y-89967437D01*
X161674923Y-86865437D01*
X162076923Y-86865437D01*
X162076923Y-89967437D01*
X162076923Y-89967437D01*
G37*
G36*
X162776923Y-89967437D02*
X162374923Y-89967437D01*
X162374923Y-86865437D01*
X162776923Y-86865437D01*
X162776923Y-89967437D01*
X162776923Y-89967437D01*
G37*
G36*
X163476923Y-89967437D02*
X163074923Y-89967437D01*
X163074923Y-86865437D01*
X163476923Y-86865437D01*
X163476923Y-89967437D01*
X163476923Y-89967437D01*
G37*
G36*
X164176923Y-89967437D02*
X163774923Y-89967437D01*
X163774923Y-86865437D01*
X164176923Y-86865437D01*
X164176923Y-89967437D01*
X164176923Y-89967437D01*
G37*
G36*
X164876923Y-89967437D02*
X164474923Y-89967437D01*
X164474923Y-86865437D01*
X164876923Y-86865437D01*
X164876923Y-89967437D01*
X164876923Y-89967437D01*
G37*
G36*
X165576923Y-89967437D02*
X165174923Y-89967437D01*
X165174923Y-86865437D01*
X165576923Y-86865437D01*
X165576923Y-89967437D01*
X165576923Y-89967437D01*
G37*
G36*
X166276923Y-89967437D02*
X165874923Y-89967437D01*
X165874923Y-86865437D01*
X166276923Y-86865437D01*
X166276923Y-89967437D01*
X166276923Y-89967437D01*
G37*
M02*
