G04 #@! TF.GenerationSoftware,KiCad,Pcbnew,5.0.2+dfsg1-1~bpo9+1*
G04 #@! TF.CreationDate,2018-12-31T18:08:11+00:00*
G04 #@! TF.ProjectId,13_full_breakout_gpio,31335f66-756c-46c5-9f62-7265616b6f75,rev?*
G04 #@! TF.SameCoordinates,Original*
G04 #@! TF.FileFunction,Legend,Bot*
G04 #@! TF.FilePolarity,Positive*
%FSLAX46Y46*%
G04 Gerber Fmt 4.6, Leading zero omitted, Abs format (unit mm)*
G04 Created by KiCad (PCBNEW 5.0.2+dfsg1-1~bpo9+1) date Mon 31 Dec 2018 18:08:11 GMT*
%MOMM*%
%LPD*%
G01*
G04 APERTURE LIST*
%ADD10C,0.300000*%
%ADD11C,0.250000*%
%ADD12C,0.150000*%
%ADD13C,0.120000*%
G04 APERTURE END LIST*
D10*
X180696357Y-96627071D02*
X181553500Y-96627071D01*
X181124928Y-96627071D02*
X181124928Y-95127071D01*
X181267785Y-95341357D01*
X181410642Y-95484214D01*
X181553500Y-95555642D01*
X180053500Y-96484214D02*
X179982071Y-96555642D01*
X180053500Y-96627071D01*
X180124928Y-96555642D01*
X180053500Y-96484214D01*
X180053500Y-96627071D01*
X179482071Y-95127071D02*
X178553500Y-95127071D01*
X179053500Y-95698500D01*
X178839214Y-95698500D01*
X178696357Y-95769928D01*
X178624928Y-95841357D01*
X178553500Y-95984214D01*
X178553500Y-96341357D01*
X178624928Y-96484214D01*
X178696357Y-96555642D01*
X178839214Y-96627071D01*
X179267785Y-96627071D01*
X179410642Y-96555642D01*
X179482071Y-96484214D01*
X177982071Y-95127071D02*
X177982071Y-95412785D01*
X177410642Y-95127071D02*
X177410642Y-95412785D01*
X175624928Y-96627071D02*
X175624928Y-95127071D01*
X175624928Y-95698500D02*
X175482071Y-95627071D01*
X175196357Y-95627071D01*
X175053500Y-95698500D01*
X174982071Y-95769928D01*
X174910642Y-95912785D01*
X174910642Y-96341357D01*
X174982071Y-96484214D01*
X175053500Y-96555642D01*
X175196357Y-96627071D01*
X175482071Y-96627071D01*
X175624928Y-96555642D01*
X174267785Y-96627071D02*
X174267785Y-95627071D01*
X174267785Y-95912785D02*
X174196357Y-95769928D01*
X174124928Y-95698500D01*
X173982071Y-95627071D01*
X173839214Y-95627071D01*
X172767785Y-96555642D02*
X172910642Y-96627071D01*
X173196357Y-96627071D01*
X173339214Y-96555642D01*
X173410642Y-96412785D01*
X173410642Y-95841357D01*
X173339214Y-95698500D01*
X173196357Y-95627071D01*
X172910642Y-95627071D01*
X172767785Y-95698500D01*
X172696357Y-95841357D01*
X172696357Y-95984214D01*
X173410642Y-96127071D01*
X171410642Y-96627071D02*
X171410642Y-95841357D01*
X171482071Y-95698500D01*
X171624928Y-95627071D01*
X171910642Y-95627071D01*
X172053500Y-95698500D01*
X171410642Y-96555642D02*
X171553500Y-96627071D01*
X171910642Y-96627071D01*
X172053500Y-96555642D01*
X172124928Y-96412785D01*
X172124928Y-96269928D01*
X172053500Y-96127071D01*
X171910642Y-96055642D01*
X171553500Y-96055642D01*
X171410642Y-95984214D01*
X170696357Y-96627071D02*
X170696357Y-95127071D01*
X170553500Y-96055642D02*
X170124928Y-96627071D01*
X170124928Y-95627071D02*
X170696357Y-96198500D01*
X169267785Y-96627071D02*
X169410642Y-96555642D01*
X169482071Y-96484214D01*
X169553500Y-96341357D01*
X169553500Y-95912785D01*
X169482071Y-95769928D01*
X169410642Y-95698500D01*
X169267785Y-95627071D01*
X169053500Y-95627071D01*
X168910642Y-95698500D01*
X168839214Y-95769928D01*
X168767785Y-95912785D01*
X168767785Y-96341357D01*
X168839214Y-96484214D01*
X168910642Y-96555642D01*
X169053500Y-96627071D01*
X169267785Y-96627071D01*
X167482071Y-95627071D02*
X167482071Y-96627071D01*
X168124928Y-95627071D02*
X168124928Y-96412785D01*
X168053500Y-96555642D01*
X167910642Y-96627071D01*
X167696357Y-96627071D01*
X167553500Y-96555642D01*
X167482071Y-96484214D01*
X166982071Y-95627071D02*
X166410642Y-95627071D01*
X166767785Y-95127071D02*
X166767785Y-96412785D01*
X166696357Y-96555642D01*
X166553500Y-96627071D01*
X166410642Y-96627071D01*
D11*
X140612571Y-91781380D02*
X139945904Y-91781380D01*
X140374476Y-92781380D01*
X139564952Y-92686142D02*
X139517333Y-92733761D01*
X139564952Y-92781380D01*
X139612571Y-92733761D01*
X139564952Y-92686142D01*
X139564952Y-92781380D01*
X137755428Y-92686142D02*
X137803047Y-92733761D01*
X137945904Y-92781380D01*
X138041142Y-92781380D01*
X138184000Y-92733761D01*
X138279238Y-92638523D01*
X138326857Y-92543285D01*
X138374476Y-92352809D01*
X138374476Y-92209952D01*
X138326857Y-92019476D01*
X138279238Y-91924238D01*
X138184000Y-91829000D01*
X138041142Y-91781380D01*
X137945904Y-91781380D01*
X137803047Y-91829000D01*
X137755428Y-91876619D01*
X137374476Y-92733761D02*
X137231619Y-92781380D01*
X136993523Y-92781380D01*
X136898285Y-92733761D01*
X136850666Y-92686142D01*
X136803047Y-92590904D01*
X136803047Y-92495666D01*
X136850666Y-92400428D01*
X136898285Y-92352809D01*
X136993523Y-92305190D01*
X137184000Y-92257571D01*
X137279238Y-92209952D01*
X137326857Y-92162333D01*
X137374476Y-92067095D01*
X137374476Y-91971857D01*
X137326857Y-91876619D01*
X137279238Y-91829000D01*
X137184000Y-91781380D01*
X136945904Y-91781380D01*
X136803047Y-91829000D01*
D10*
X163631500Y-66615571D02*
X162631500Y-66615571D01*
X163274357Y-68115571D01*
D11*
X140112571Y-90320880D02*
X140303047Y-90320880D01*
X140398285Y-90368500D01*
X140445904Y-90416119D01*
X140541142Y-90558976D01*
X140588761Y-90749452D01*
X140588761Y-91130404D01*
X140541142Y-91225642D01*
X140493523Y-91273261D01*
X140398285Y-91320880D01*
X140207809Y-91320880D01*
X140112571Y-91273261D01*
X140064952Y-91225642D01*
X140017333Y-91130404D01*
X140017333Y-90892309D01*
X140064952Y-90797071D01*
X140112571Y-90749452D01*
X140207809Y-90701833D01*
X140398285Y-90701833D01*
X140493523Y-90749452D01*
X140541142Y-90797071D01*
X140588761Y-90892309D01*
X139588761Y-91225642D02*
X139541142Y-91273261D01*
X139588761Y-91320880D01*
X139636380Y-91273261D01*
X139588761Y-91225642D01*
X139588761Y-91320880D01*
X138350666Y-91320880D02*
X138350666Y-90320880D01*
X138112571Y-90320880D01*
X137969714Y-90368500D01*
X137874476Y-90463738D01*
X137826857Y-90558976D01*
X137779238Y-90749452D01*
X137779238Y-90892309D01*
X137826857Y-91082785D01*
X137874476Y-91178023D01*
X137969714Y-91273261D01*
X138112571Y-91320880D01*
X138350666Y-91320880D01*
X136779238Y-91225642D02*
X136826857Y-91273261D01*
X136969714Y-91320880D01*
X137064952Y-91320880D01*
X137207809Y-91273261D01*
X137303047Y-91178023D01*
X137350666Y-91082785D01*
X137398285Y-90892309D01*
X137398285Y-90749452D01*
X137350666Y-90558976D01*
X137303047Y-90463738D01*
X137207809Y-90368500D01*
X137064952Y-90320880D01*
X136969714Y-90320880D01*
X136826857Y-90368500D01*
X136779238Y-90416119D01*
D10*
X160305785Y-66615571D02*
X160591500Y-66615571D01*
X160734357Y-66687000D01*
X160805785Y-66758428D01*
X160948642Y-66972714D01*
X161020071Y-67258428D01*
X161020071Y-67829857D01*
X160948642Y-67972714D01*
X160877214Y-68044142D01*
X160734357Y-68115571D01*
X160448642Y-68115571D01*
X160305785Y-68044142D01*
X160234357Y-67972714D01*
X160162928Y-67829857D01*
X160162928Y-67472714D01*
X160234357Y-67329857D01*
X160305785Y-67258428D01*
X160448642Y-67187000D01*
X160734357Y-67187000D01*
X160877214Y-67258428D01*
X160948642Y-67329857D01*
X161020071Y-67472714D01*
D11*
X140056904Y-88860380D02*
X140533095Y-88860380D01*
X140580714Y-89336571D01*
X140533095Y-89288952D01*
X140437857Y-89241333D01*
X140199761Y-89241333D01*
X140104523Y-89288952D01*
X140056904Y-89336571D01*
X140009285Y-89431809D01*
X140009285Y-89669904D01*
X140056904Y-89765142D01*
X140104523Y-89812761D01*
X140199761Y-89860380D01*
X140437857Y-89860380D01*
X140533095Y-89812761D01*
X140580714Y-89765142D01*
X139580714Y-89765142D02*
X139533095Y-89812761D01*
X139580714Y-89860380D01*
X139628333Y-89812761D01*
X139580714Y-89765142D01*
X139580714Y-89860380D01*
X138390238Y-89812761D02*
X138247380Y-89860380D01*
X138009285Y-89860380D01*
X137914047Y-89812761D01*
X137866428Y-89765142D01*
X137818809Y-89669904D01*
X137818809Y-89574666D01*
X137866428Y-89479428D01*
X137914047Y-89431809D01*
X138009285Y-89384190D01*
X138199761Y-89336571D01*
X138295000Y-89288952D01*
X138342619Y-89241333D01*
X138390238Y-89146095D01*
X138390238Y-89050857D01*
X138342619Y-88955619D01*
X138295000Y-88908000D01*
X138199761Y-88860380D01*
X137961666Y-88860380D01*
X137818809Y-88908000D01*
X136818809Y-89765142D02*
X136866428Y-89812761D01*
X137009285Y-89860380D01*
X137104523Y-89860380D01*
X137247380Y-89812761D01*
X137342619Y-89717523D01*
X137390238Y-89622285D01*
X137437857Y-89431809D01*
X137437857Y-89288952D01*
X137390238Y-89098476D01*
X137342619Y-89003238D01*
X137247380Y-88908000D01*
X137104523Y-88860380D01*
X137009285Y-88860380D01*
X136866428Y-88908000D01*
X136818809Y-88955619D01*
X135914047Y-89860380D02*
X136390238Y-89860380D01*
X136390238Y-88860380D01*
X135580714Y-89860380D02*
X135580714Y-88860380D01*
X135009285Y-89860380D02*
X135437857Y-89288952D01*
X135009285Y-88860380D02*
X135580714Y-89431809D01*
D10*
X162774357Y-79506071D02*
X163488642Y-79506071D01*
X163560071Y-80220357D01*
X163488642Y-80148928D01*
X163345785Y-80077500D01*
X162988642Y-80077500D01*
X162845785Y-80148928D01*
X162774357Y-80220357D01*
X162702928Y-80363214D01*
X162702928Y-80720357D01*
X162774357Y-80863214D01*
X162845785Y-80934642D01*
X162988642Y-81006071D01*
X163345785Y-81006071D01*
X163488642Y-80934642D01*
X163560071Y-80863214D01*
D11*
X140096595Y-87733214D02*
X140096595Y-88399880D01*
X140334690Y-87352261D02*
X140572785Y-88066547D01*
X139953738Y-88066547D01*
X139572785Y-88304642D02*
X139525166Y-88352261D01*
X139572785Y-88399880D01*
X139620404Y-88352261D01*
X139572785Y-88304642D01*
X139572785Y-88399880D01*
X138334690Y-88399880D02*
X138334690Y-87399880D01*
X138001357Y-88114166D01*
X137668023Y-87399880D01*
X137668023Y-88399880D01*
X137001357Y-87399880D02*
X136810880Y-87399880D01*
X136715642Y-87447500D01*
X136620404Y-87542738D01*
X136572785Y-87733214D01*
X136572785Y-88066547D01*
X136620404Y-88257023D01*
X136715642Y-88352261D01*
X136810880Y-88399880D01*
X137001357Y-88399880D01*
X137096595Y-88352261D01*
X137191833Y-88257023D01*
X137239452Y-88066547D01*
X137239452Y-87733214D01*
X137191833Y-87542738D01*
X137096595Y-87447500D01*
X137001357Y-87399880D01*
X136191833Y-88352261D02*
X136048976Y-88399880D01*
X135810880Y-88399880D01*
X135715642Y-88352261D01*
X135668023Y-88304642D01*
X135620404Y-88209404D01*
X135620404Y-88114166D01*
X135668023Y-88018928D01*
X135715642Y-87971309D01*
X135810880Y-87923690D01*
X136001357Y-87876071D01*
X136096595Y-87828452D01*
X136144214Y-87780833D01*
X136191833Y-87685595D01*
X136191833Y-87590357D01*
X136144214Y-87495119D01*
X136096595Y-87447500D01*
X136001357Y-87399880D01*
X135763261Y-87399880D01*
X135620404Y-87447500D01*
X135191833Y-88399880D02*
X135191833Y-87399880D01*
D10*
X157892785Y-80006071D02*
X157892785Y-81006071D01*
X158249928Y-79434642D02*
X158607071Y-80506071D01*
X157678500Y-80506071D01*
D11*
X140612523Y-85939380D02*
X139993476Y-85939380D01*
X140326809Y-86320333D01*
X140183952Y-86320333D01*
X140088714Y-86367952D01*
X140041095Y-86415571D01*
X139993476Y-86510809D01*
X139993476Y-86748904D01*
X140041095Y-86844142D01*
X140088714Y-86891761D01*
X140183952Y-86939380D01*
X140469666Y-86939380D01*
X140564904Y-86891761D01*
X140612523Y-86844142D01*
X139564904Y-86844142D02*
X139517285Y-86891761D01*
X139564904Y-86939380D01*
X139612523Y-86891761D01*
X139564904Y-86844142D01*
X139564904Y-86939380D01*
X137755380Y-86939380D02*
X138088714Y-86463190D01*
X138326809Y-86939380D02*
X138326809Y-85939380D01*
X137945857Y-85939380D01*
X137850619Y-85987000D01*
X137803000Y-86034619D01*
X137755380Y-86129857D01*
X137755380Y-86272714D01*
X137803000Y-86367952D01*
X137850619Y-86415571D01*
X137945857Y-86463190D01*
X138326809Y-86463190D01*
X137374428Y-86891761D02*
X137231571Y-86939380D01*
X136993476Y-86939380D01*
X136898238Y-86891761D01*
X136850619Y-86844142D01*
X136803000Y-86748904D01*
X136803000Y-86653666D01*
X136850619Y-86558428D01*
X136898238Y-86510809D01*
X136993476Y-86463190D01*
X137183952Y-86415571D01*
X137279190Y-86367952D01*
X137326809Y-86320333D01*
X137374428Y-86225095D01*
X137374428Y-86129857D01*
X137326809Y-86034619D01*
X137279190Y-85987000D01*
X137183952Y-85939380D01*
X136945857Y-85939380D01*
X136803000Y-85987000D01*
X136517285Y-85939380D02*
X135945857Y-85939380D01*
X136231571Y-86939380D02*
X136231571Y-85939380D01*
D10*
X150931500Y-79506071D02*
X150002928Y-79506071D01*
X150502928Y-80077500D01*
X150288642Y-80077500D01*
X150145785Y-80148928D01*
X150074357Y-80220357D01*
X150002928Y-80363214D01*
X150002928Y-80720357D01*
X150074357Y-80863214D01*
X150145785Y-80934642D01*
X150288642Y-81006071D01*
X150717214Y-81006071D01*
X150860071Y-80934642D01*
X150931500Y-80863214D01*
D11*
X140541071Y-84510619D02*
X140493452Y-84463000D01*
X140398214Y-84415380D01*
X140160119Y-84415380D01*
X140064880Y-84463000D01*
X140017261Y-84510619D01*
X139969642Y-84605857D01*
X139969642Y-84701095D01*
X140017261Y-84843952D01*
X140588690Y-85415380D01*
X139969642Y-85415380D01*
X139541071Y-85320142D02*
X139493452Y-85367761D01*
X139541071Y-85415380D01*
X139588690Y-85367761D01*
X139541071Y-85320142D01*
X139541071Y-85415380D01*
X137779166Y-84463000D02*
X137874404Y-84415380D01*
X138017261Y-84415380D01*
X138160119Y-84463000D01*
X138255357Y-84558238D01*
X138302976Y-84653476D01*
X138350595Y-84843952D01*
X138350595Y-84986809D01*
X138302976Y-85177285D01*
X138255357Y-85272523D01*
X138160119Y-85367761D01*
X138017261Y-85415380D01*
X137922023Y-85415380D01*
X137779166Y-85367761D01*
X137731547Y-85320142D01*
X137731547Y-84986809D01*
X137922023Y-84986809D01*
X137302976Y-85415380D02*
X137302976Y-84415380D01*
X136731547Y-85415380D01*
X136731547Y-84415380D01*
X136255357Y-85415380D02*
X136255357Y-84415380D01*
X136017261Y-84415380D01*
X135874404Y-84463000D01*
X135779166Y-84558238D01*
X135731547Y-84653476D01*
X135683928Y-84843952D01*
X135683928Y-84986809D01*
X135731547Y-85177285D01*
X135779166Y-85272523D01*
X135874404Y-85367761D01*
X136017261Y-85415380D01*
X136255357Y-85415380D01*
D10*
X140636571Y-66948928D02*
X140565142Y-66877500D01*
X140422285Y-66806071D01*
X140065142Y-66806071D01*
X139922285Y-66877500D01*
X139850857Y-66948928D01*
X139779428Y-67091785D01*
X139779428Y-67234642D01*
X139850857Y-67448928D01*
X140708000Y-68306071D01*
X139779428Y-68306071D01*
D11*
X139969666Y-83954880D02*
X140541095Y-83954880D01*
X140255380Y-83954880D02*
X140255380Y-82954880D01*
X140350619Y-83097738D01*
X140445857Y-83192976D01*
X140541095Y-83240595D01*
X139541095Y-83859642D02*
X139493476Y-83907261D01*
X139541095Y-83954880D01*
X139588714Y-83907261D01*
X139541095Y-83859642D01*
X139541095Y-83954880D01*
X138398238Y-82954880D02*
X137779190Y-82954880D01*
X138112523Y-83335833D01*
X137969666Y-83335833D01*
X137874428Y-83383452D01*
X137826809Y-83431071D01*
X137779190Y-83526309D01*
X137779190Y-83764404D01*
X137826809Y-83859642D01*
X137874428Y-83907261D01*
X137969666Y-83954880D01*
X138255380Y-83954880D01*
X138350619Y-83907261D01*
X138398238Y-83859642D01*
X137445857Y-83288214D02*
X137207761Y-83954880D01*
X136969666Y-83288214D01*
X136683952Y-82954880D02*
X136064904Y-82954880D01*
X136398238Y-83335833D01*
X136255380Y-83335833D01*
X136160142Y-83383452D01*
X136112523Y-83431071D01*
X136064904Y-83526309D01*
X136064904Y-83764404D01*
X136112523Y-83859642D01*
X136160142Y-83907261D01*
X136255380Y-83954880D01*
X136541095Y-83954880D01*
X136636333Y-83907261D01*
X136683952Y-83859642D01*
D10*
X134762928Y-81006071D02*
X135620071Y-81006071D01*
X135191500Y-81006071D02*
X135191500Y-79506071D01*
X135334357Y-79720357D01*
X135477214Y-79863214D01*
X135620071Y-79934642D01*
X181017428Y-93618857D02*
X181517428Y-93618857D01*
X181517428Y-94404571D02*
X181517428Y-92904571D01*
X180803142Y-92904571D01*
X179588857Y-94404571D02*
X179588857Y-93618857D01*
X179660285Y-93476000D01*
X179803142Y-93404571D01*
X180088857Y-93404571D01*
X180231714Y-93476000D01*
X179588857Y-94333142D02*
X179731714Y-94404571D01*
X180088857Y-94404571D01*
X180231714Y-94333142D01*
X180303142Y-94190285D01*
X180303142Y-94047428D01*
X180231714Y-93904571D01*
X180088857Y-93833142D01*
X179731714Y-93833142D01*
X179588857Y-93761714D01*
X178231714Y-94333142D02*
X178374571Y-94404571D01*
X178660285Y-94404571D01*
X178803142Y-94333142D01*
X178874571Y-94261714D01*
X178946000Y-94118857D01*
X178946000Y-93690285D01*
X178874571Y-93547428D01*
X178803142Y-93476000D01*
X178660285Y-93404571D01*
X178374571Y-93404571D01*
X178231714Y-93476000D01*
X177017428Y-94333142D02*
X177160285Y-94404571D01*
X177446000Y-94404571D01*
X177588857Y-94333142D01*
X177660285Y-94190285D01*
X177660285Y-93618857D01*
X177588857Y-93476000D01*
X177446000Y-93404571D01*
X177160285Y-93404571D01*
X177017428Y-93476000D01*
X176946000Y-93618857D01*
X176946000Y-93761714D01*
X177660285Y-93904571D01*
X176088857Y-94404571D02*
X176231714Y-94333142D01*
X176303142Y-94190285D01*
X176303142Y-92904571D01*
X174946000Y-94333142D02*
X175088857Y-94404571D01*
X175374571Y-94404571D01*
X175517428Y-94333142D01*
X175588857Y-94190285D01*
X175588857Y-93618857D01*
X175517428Y-93476000D01*
X175374571Y-93404571D01*
X175088857Y-93404571D01*
X174946000Y-93476000D01*
X174874571Y-93618857D01*
X174874571Y-93761714D01*
X175588857Y-93904571D01*
X174303142Y-94333142D02*
X174160285Y-94404571D01*
X173874571Y-94404571D01*
X173731714Y-94333142D01*
X173660285Y-94190285D01*
X173660285Y-94118857D01*
X173731714Y-93976000D01*
X173874571Y-93904571D01*
X174088857Y-93904571D01*
X174231714Y-93833142D01*
X174303142Y-93690285D01*
X174303142Y-93618857D01*
X174231714Y-93476000D01*
X174088857Y-93404571D01*
X173874571Y-93404571D01*
X173731714Y-93476000D01*
X173088857Y-94333142D02*
X172946000Y-94404571D01*
X172660285Y-94404571D01*
X172517428Y-94333142D01*
X172446000Y-94190285D01*
X172446000Y-94118857D01*
X172517428Y-93976000D01*
X172660285Y-93904571D01*
X172874571Y-93904571D01*
X173017428Y-93833142D01*
X173088857Y-93690285D01*
X173088857Y-93618857D01*
X173017428Y-93476000D01*
X172874571Y-93404571D01*
X172660285Y-93404571D01*
X172517428Y-93476000D01*
X172017428Y-93404571D02*
X171446000Y-93404571D01*
X171803142Y-92904571D02*
X171803142Y-94190285D01*
X171731714Y-94333142D01*
X171588857Y-94404571D01*
X171446000Y-94404571D01*
X170374571Y-94333142D02*
X170517428Y-94404571D01*
X170803142Y-94404571D01*
X170946000Y-94333142D01*
X171017428Y-94190285D01*
X171017428Y-93618857D01*
X170946000Y-93476000D01*
X170803142Y-93404571D01*
X170517428Y-93404571D01*
X170374571Y-93476000D01*
X170303142Y-93618857D01*
X170303142Y-93761714D01*
X171017428Y-93904571D01*
X169017428Y-94333142D02*
X169160285Y-94404571D01*
X169446000Y-94404571D01*
X169588857Y-94333142D01*
X169660285Y-94261714D01*
X169731714Y-94118857D01*
X169731714Y-93690285D01*
X169660285Y-93547428D01*
X169588857Y-93476000D01*
X169446000Y-93404571D01*
X169160285Y-93404571D01*
X169017428Y-93476000D01*
X168374571Y-94404571D02*
X168374571Y-92904571D01*
X167731714Y-94404571D02*
X167731714Y-93618857D01*
X167803142Y-93476000D01*
X167946000Y-93404571D01*
X168160285Y-93404571D01*
X168303142Y-93476000D01*
X168374571Y-93547428D01*
X165946000Y-93047428D02*
X165874571Y-92976000D01*
X165731714Y-92904571D01*
X165374571Y-92904571D01*
X165231714Y-92976000D01*
X165160285Y-93047428D01*
X165088857Y-93190285D01*
X165088857Y-93333142D01*
X165160285Y-93547428D01*
X166017428Y-94404571D01*
X165088857Y-94404571D01*
X164160285Y-92904571D02*
X164017428Y-92904571D01*
X163874571Y-92976000D01*
X163803142Y-93047428D01*
X163731714Y-93190285D01*
X163660285Y-93476000D01*
X163660285Y-93833142D01*
X163731714Y-94118857D01*
X163803142Y-94261714D01*
X163874571Y-94333142D01*
X164017428Y-94404571D01*
X164160285Y-94404571D01*
X164303142Y-94333142D01*
X164374571Y-94261714D01*
X164446000Y-94118857D01*
X164517428Y-93833142D01*
X164517428Y-93476000D01*
X164446000Y-93190285D01*
X164374571Y-93047428D01*
X164303142Y-92976000D01*
X164160285Y-92904571D01*
X162231714Y-94404571D02*
X163088857Y-94404571D01*
X162660285Y-94404571D02*
X162660285Y-92904571D01*
X162803142Y-93118857D01*
X162946000Y-93261714D01*
X163088857Y-93333142D01*
X161374571Y-93547428D02*
X161517428Y-93476000D01*
X161588857Y-93404571D01*
X161660285Y-93261714D01*
X161660285Y-93190285D01*
X161588857Y-93047428D01*
X161517428Y-92976000D01*
X161374571Y-92904571D01*
X161088857Y-92904571D01*
X160946000Y-92976000D01*
X160874571Y-93047428D01*
X160803142Y-93190285D01*
X160803142Y-93261714D01*
X160874571Y-93404571D01*
X160946000Y-93476000D01*
X161088857Y-93547428D01*
X161374571Y-93547428D01*
X161517428Y-93618857D01*
X161588857Y-93690285D01*
X161660285Y-93833142D01*
X161660285Y-94118857D01*
X161588857Y-94261714D01*
X161517428Y-94333142D01*
X161374571Y-94404571D01*
X161088857Y-94404571D01*
X160946000Y-94333142D01*
X160874571Y-94261714D01*
X160803142Y-94118857D01*
X160803142Y-93833142D01*
X160874571Y-93690285D01*
X160946000Y-93618857D01*
X161088857Y-93547428D01*
D12*
G04 #@! TO.C,J1*
X134175500Y-76454000D02*
X134175500Y-71374000D01*
X134175500Y-71374000D02*
X184467500Y-71374000D01*
X184467500Y-71374000D02*
X184467500Y-76454000D01*
X184467500Y-76454000D02*
X134175500Y-76454000D01*
D13*
G04 #@! TO.C,R1*
X168939936Y-83968000D02*
X170144064Y-83968000D01*
X168939936Y-82148000D02*
X170144064Y-82148000D01*
G04 #@! TD*
M02*
